<?xml version="1.0" encoding="iso-8859-1"?>
<!-- Generator: Adobe Illustrator 19.0.0, SVG Export Plug-In . SVG Version: 6.00 Build 0)  -->
<svg version="1.1" id="Capa_1" xmlns="http://www.w3.org/2000/svg" xmlns:xlink="http://www.w3.org/1999/xlink" x="0px" y="0px"
	 viewBox="0 0 512.001 512.001" style="enable-background:new 0 0 512.001 512.001;" xml:space="preserve">
<g>
	<path style="fill:#C8E6FA;" d="M30.665,64.715c-9.024,0-16.364-7.341-16.364-16.364s7.341-16.364,16.364-16.364
		S47.03,39.327,47.03,48.35S39.689,64.715,30.665,64.715z"/>
	<path style="fill:#C8E6FA;" d="M42.61,264.915c-9.024,0-16.364-7.341-16.364-16.364c0-9.024,7.341-16.364,16.364-16.364
		s16.364,7.341,16.364,16.364C58.974,257.574,51.634,264.915,42.61,264.915z"/>
	<path style="fill:#C8E6FA;" d="M57.605,461.742c-9.024,0-16.364-7.341-16.364-16.364c0-9.024,7.341-16.364,16.364-16.364
		s16.364,7.341,16.364,16.364C73.969,454.401,66.627,461.742,57.605,461.742z"/>
	<path style="fill:#C8E6FA;" d="M127.001,91.251c-9.024,0-16.364-7.341-16.364-16.364s7.341-16.364,16.364-16.364
		s16.364,7.341,16.364,16.364S136.025,91.251,127.001,91.251z"/>
	<path style="fill:#C8E6FA;" d="M225.261,32.729c-9.024,0-16.364-7.341-16.364-16.364S216.237,0,225.261,0
		s16.364,7.341,16.364,16.364S234.285,32.729,225.261,32.729z"/>
	<path style="fill:#C8E6FA;" d="M434.089,148.23c-9.024,0-16.364-7.341-16.364-16.364c0-9.024,7.341-16.364,16.364-16.364
		c9.024,0,16.364,7.341,16.364,16.364C450.453,140.89,443.112,148.23,434.089,148.23z"/>
	<path style="fill:#C8E6FA;" d="M481.336,443.195c-9.024,0-16.364-7.341-16.364-16.364s7.341-16.364,16.364-16.364
		s16.364,7.341,16.364,16.364S490.359,443.195,481.336,443.195z"/>
</g>
<g>
	<path style="fill:#8EE4EF;" d="M42.61,52.779c-9.024,0-16.364-7.341-16.364-16.364c0-1.358,0.185-2.672,0.498-3.934
		c-7.132,1.764-12.443,8.2-12.443,15.869c0,9.024,7.341,16.364,16.364,16.364c7.666,0,14.098-5.304,15.866-12.43
		C45.272,52.596,43.964,52.779,42.61,52.779z"/>
	<path style="fill:#8EE4EF;" d="M54.555,252.979c-9.024,0-16.364-7.341-16.364-16.364c0-1.358,0.185-2.672,0.498-3.934
		c-7.132,1.764-12.443,8.2-12.443,15.869c0,9.024,7.341,16.364,16.364,16.364c7.666,0,14.098-5.304,15.866-12.43
		C57.217,252.796,55.909,252.979,54.555,252.979z"/>
</g>
<path style="fill:#C8E6FA;" d="M69.55,449.806c-9.024,0-16.364-7.341-16.364-16.364c0-1.358,0.185-2.672,0.498-3.934
	c-7.132,1.764-12.443,8.2-12.443,15.869c0,9.024,7.341,16.364,16.364,16.364c7.666,0,14.098-5.304,15.866-12.43
	C72.212,449.623,70.904,449.806,69.55,449.806z"/>
<g>
	<path style="fill:#8EE4EF;" d="M138.946,79.316c-9.024,0-16.364-7.341-16.364-16.364c0-1.358,0.185-2.672,0.498-3.934
		c-7.132,1.764-12.443,8.2-12.443,15.869c0,9.024,7.341,16.364,16.364,16.364c7.666,0,14.098-5.304,15.866-12.43
		C141.608,79.132,140.3,79.316,138.946,79.316z"/>
	<path style="fill:#8EE4EF;" d="M237.206,20.793c-9.024,0-16.364-7.341-16.364-16.364c0-1.358,0.185-2.672,0.498-3.934
		c-7.132,1.764-12.443,8.2-12.443,15.869c0,9.024,7.341,16.364,16.364,16.364c7.666,0,14.098-5.304,15.866-12.43
		C239.868,20.61,238.56,20.793,237.206,20.793z"/>
	<path style="fill:#8EE4EF;" d="M446.033,136.295c-9.024,0-16.364-7.341-16.364-16.364c0-1.358,0.185-2.672,0.498-3.934
		c-7.132,1.764-12.443,8.2-12.443,15.869c0,9.024,7.341,16.364,16.364,16.364c7.666,0,14.098-5.304,15.866-12.43
		C448.696,136.111,447.387,136.295,446.033,136.295z"/>
	<path style="fill:#8EE4EF;" d="M493.281,431.258c-9.024,0-16.364-7.341-16.364-16.364c0-1.358,0.185-2.672,0.498-3.934
		c-7.132,1.764-12.443,8.2-12.443,15.869c0,9.024,7.341,16.364,16.364,16.364c7.666,0,14.098-5.304,15.866-12.43
		C495.943,431.076,494.634,431.258,493.281,431.258z"/>
</g>
<path style="fill:#3F5666;" d="M418.831,457.961l-32.766-96.123l-7.595-13.328H140.474l-5.454,13.727l-32.63,95.722
	c-2.02,5.923,0.263,12.395,5.56,15.745c2.16,1.363,4.648,2.084,7.196,2.084c3.811,0,7.461-1.626,10.016-4.465l32.948-36.624
	c-3.781,29.28-2.171,52.822,4.915,71.922l0,0c1.199,3.234,4.285,5.381,7.735,5.381h179.703c3.449,0,6.534-2.146,7.735-5.381l0,0
	c7.081-19.092,8.695-42.613,4.913-71.923l32.945,36.621c2.553,2.841,6.204,4.47,10.018,4.47c2.548,0,5.038-0.721,7.205-2.089
	C418.567,470.354,420.851,463.883,418.831,457.961z"/>
<path style="fill:#2F4B5B;" d="M140.474,348.51l-5.454,13.727l-32.63,95.722c-2.02,5.923,0.263,12.395,5.56,15.745
	c2.16,1.363,4.648,2.084,7.196,2.084c3.811,0,7.461-1.626,10.016-4.465l32.948-36.624c-3.781,29.28-2.171,52.822,4.915,71.922
	c1.199,3.234,4.285,5.381,7.735,5.381H263c-8.534-30.653-25.743-97.567-33.33-163.49h-89.196V348.51z"/>
<path style="fill:#F2E5CB;" d="M198.159,512l-1.898-5.602c-11.317-33.404-11.059-73.065,0.837-128.6l1.467-6.851l6.998,0.339
	c18.434,0.892,37.007,1.346,55.201,1.346c18.476,0,37.259-0.467,55.887-1.389l7.297-0.361l1.239,7.199
	c9.062,52.648,9.296,94.427,0.713,127.727l-1.596,6.19H198.159V512z"/>
<path style="fill:#E2CFAF;" d="M257.73,486.456c-3.536,0-6.678-2.253-7.813-5.602l0,0c-9.889-29.187-10.938-63.155-3.11-108.312
	c-13.682-0.171-27.501-0.591-41.243-1.256l-6.998-0.339l-1.467,6.851c-11.895,55.534-12.154,95.196-0.837,128.6l1.898,5.602h126.146
	l1.596-6.19c1.587-6.156,2.87-12.604,3.853-19.354H257.73V486.456z"/>
<path style="fill:#FF2939;" d="M401.539,297.094L401.539,297.094c-5.38-10.793-16.403-17.612-28.463-17.605l-225.921,0.126
	c-10.594,0.006-20.488,5.29-26.385,14.091l-0.297,0.442c-2.949,4.402-4.508,9.515-4.508,14.789v18.803
	c0,21.287,16.036,38.853,37.302,40.858c35.642,3.362,71.829,5.066,107.555,5.066c35.535,0,71.281-1.687,106.245-5.012
	c21.244-2.021,37.264-19.585,37.264-40.855v-18.86C404.33,304.853,403.365,300.758,401.539,297.094z"/>
<path style="fill:#FC001F;" d="M390.428,356.371c-34.963,3.326-70.709,5.012-106.245,5.012c-35.726,0-71.913-1.704-107.555-5.066
	c-21.265-2.006-37.302-19.571-37.302-40.858v-18.803c0-5.273,1.559-10.387,4.508-14.789l0.297-0.442
	c0.404-0.603,0.831-1.186,1.271-1.755c-9.924,0.553-19.062,5.722-24.632,14.035l-0.297,0.442c-2.949,4.402-4.508,9.515-4.508,14.789
	v18.803c0,21.287,16.036,38.853,37.302,40.858c35.642,3.362,71.829,5.066,107.555,5.066c35.535,0,71.281-1.687,106.245-5.012
	c10.336-0.984,19.428-5.653,26.048-12.633C392.227,356.16,391.334,356.285,390.428,356.371z"/>
<path style="fill:#3F5666;" d="M260.732,336.379c-29.437,0-59.212-2.294-88.497-6.818c-23.183-3.584-40.011-23.204-40.011-46.653
	c0-16.511,8.841-32.024,23.095-40.56v-53.433c0-58.312,47.441-105.753,105.753-105.753s105.753,47.441,105.753,105.753v53.433
	c14.252,8.533,23.095,24.034,23.095,40.524c0,23.479-16.852,43.103-40.07,46.661c-29.633,4.543-59.616,6.847-89.113,6.847h-0.005
	V336.379z"/>
<path style="fill:#2F4B5B;" d="M256.869,329.56c-23.183-3.584-40.011-23.204-40.011-46.653c0-16.511,8.841-32.024,23.095-40.56
	v-53.433c0-43.273,26.129-80.552,63.437-96.907c-12.966-5.684-27.278-8.846-42.317-8.846c-58.312,0-105.753,47.441-105.753,105.753
	v53.433c-14.254,8.536-23.095,24.049-23.095,40.56c0,23.449,16.826,43.07,40.011,46.653c29.286,4.525,59.06,6.818,88.497,6.818
	h0.005c14.04,0,28.19-0.538,42.36-1.575C287.633,333.667,272.183,331.927,256.869,329.56z"/>
<path style="fill:#F2E5CB;" d="M260.742,312.141c-28.123,0-56.438-2.171-84.155-6.451c-11.667-1.801-20.135-11.662-20.135-23.444
	c0-12.737,10.225-23.24,22.898-23.649v-69.503c0-0.865,0.033-14.531,0.107-16.247c1.134-21.943,18.24-31.906,33.656-31.906
	c0.304,0,0.606,0.003,0.909,0.01c16.092,0.417,33.392,11.237,33.392,34.014v38.63c3.991-2.019,8.49-3.128,13.197-3.128
	c4.337,0,8.51,0.952,12.272,2.693v-38.168c0-23.388,17.766-34.506,34.27-34.939c0.341-0.009,0.683-0.013,1.023-0.013
	c15.793,0,33.328,10.219,34.506,32.656c0.08,1.834,0.114,15.532,0.114,16.396v69.503c6.266,0.198,12.077,2.805,16.408,7.372
	c4.444,4.687,6.741,10.832,6.467,17.304c-0.476,11.266-9.128,20.709-20.569,22.451C317.173,309.982,288.791,312.141,260.742,312.141
	z"/>
<g>
	<path style="fill:#E2CFAF;" d="M203.735,153.791c0.304,0,0.606,0.003,0.909,0.01c16.092,0.417,33.392,11.237,33.392,34.014v38.63
		c3.991-2.019,8.49-3.128,13.197-3.128c4.337,0,8.51,0.952,12.272,2.693v-15.395c-0.956-0.095-1.92-0.15-2.894-0.15
		c-4.706,0-9.207,1.11-13.197,3.128v-38.63c0-22.777-17.3-33.598-33.392-34.014c-0.303-0.007-0.605-0.01-0.909-0.01
		c-12.383,0-25.848,6.435-31.258,20.337C188.154,156.21,196.147,153.791,203.735,153.791z"/>
	<path style="fill:#E2CFAF;" d="M359.205,265.97c-4.331-4.568-10.141-7.174-16.408-7.372v-69.503c0-0.865-0.034-14.562-0.114-16.396
		c-1.179-22.438-18.712-32.656-34.506-32.656c-0.34,0-0.682,0.004-1.023,0.013c-12.76,0.335-26.267,7.063-31.742,20.904
		c6.375-5.217,14.51-7.848,22.365-8.054c0.341-0.009,0.683-0.013,1.023-0.013c15.793,0,33.328,10.219,34.506,32.656
		c0.08,1.834,0.114,15.532,0.114,16.396v69.503c6.266,0.198,12.077,2.805,16.408,7.372c4.444,4.687,6.741,10.832,6.467,17.304
		c-0.08,1.906-0.412,3.752-0.935,5.525c6.014-4.146,9.994-10.847,10.313-18.376C365.945,276.801,363.648,270.655,359.205,265.97z"/>
</g>
<g>
	<path style="fill:#FFB624;" d="M293.524,236.52c-3.513-14.933-16.913-26.054-32.918-26.054s-29.405,11.12-32.918,26.054H293.524z"
		/>
	<path style="fill:#FFB624;" d="M293.524,251.788c-3.513,14.933-16.913,26.054-32.918,26.054s-29.405-11.12-32.918-26.054
		L293.524,251.788L293.524,251.788z"/>
</g>
<g>
	<path style="fill:#F4A414;" d="M251.908,234.772c0-9.196,3.197-17.641,8.529-24.302c-15.929,0.079-29.247,11.17-32.747,26.05
		h24.264C251.926,235.941,251.908,235.359,251.908,234.772z"/>
	<path style="fill:#F4A414;" d="M255.817,251.788h-28.129c3.513,14.933,16.913,26.054,32.918,26.054
		c7.023,0,13.544-2.142,18.948-5.807C269.112,268.876,260.523,261.454,255.817,251.788z"/>
</g>
<path style="fill:#E5970C;" d="M234.483,256.8c-6.428,0-11.657-5.229-11.657-11.658v-1.7c0-6.427,5.229-11.657,11.657-11.657h53.181
	c6.427,0,11.657,5.229,11.657,11.657v1.7c0,6.428-5.229,11.658-11.657,11.658L234.483,256.8L234.483,256.8z"/>
<path style="fill:#D68400;" d="M295.224,245.188h-53.181c-6.428,0-11.657-5.229-11.657-11.658v-0.989
	c-4.41,1.663-7.56,5.915-7.56,10.899v1.7c0,6.428,5.229,11.658,11.657,11.658h53.181c6.427,0,11.657-5.229,11.657-11.658v-0.71
	C298.044,244.913,296.667,245.188,295.224,245.188z"/>
<g>
	<circle style="fill:#D6C099;" cx="212.045" cy="179.481" r="10.373"/>
	<circle style="fill:#D6C099;" cx="309.179" cy="179.481" r="10.373"/>
	<path style="fill:#D6C099;" d="M222.652,211.312h-22.224c-4.271,0-7.734-3.462-7.734-7.734c0-4.272,3.463-7.734,7.734-7.734h22.224
		c4.271,0,7.734,3.462,7.734,7.734C230.386,207.85,226.923,211.312,222.652,211.312z"/>
	<path style="fill:#D6C099;" d="M320.794,211.312h-22.224c-4.272,0-7.734-3.462-7.734-7.734c0-4.272,3.462-7.734,7.734-7.734h22.224
		c4.272,0,7.734,3.462,7.734,7.734C328.527,207.85,325.065,211.312,320.794,211.312z"/>
</g>
<g>
</g>
<g>
</g>
<g>
</g>
<g>
</g>
<g>
</g>
<g>
</g>
<g>
</g>
<g>
</g>
<g>
</g>
<g>
</g>
<g>
</g>
<g>
</g>
<g>
</g>
<g>
</g>
<g>
</g>
</svg>
